<svg width="21" height="21" viewBox="0 0 21 21" fill="none" xmlns="http://www.w3.org/2000/svg">
<path d="M7.25 15.5V16.507C7.25005 16.9011 7.17244 17.2914 7.02162 17.6555C6.8708 18.0196 6.64971 18.3504 6.371 18.629L5.75 19.25H14.75L14.129 18.629C13.8503 18.3504 13.6292 18.0196 13.4784 17.6555C13.3276 17.2914 13.25 16.9011 13.25 16.507V15.5M1.25 3.5V10.25C1.25 10.8467 1.48705 11.419 1.90901 11.841C2.33097 12.2629 2.90326 12.5 3.5 12.5H17C17.5967 12.5 18.169 12.2629 18.591 11.841C19.0129 11.419 19.25 10.8467 19.25 10.25V3.5C19.25 2.90326 19.0129 2.33097 18.591 1.90901C18.169 1.48705 17.5967 1.25 17 1.25H3.5C2.90326 1.25 2.33097 1.48705 1.90901 1.90901C1.48705 2.33097 1.25 2.90326 1.25 3.5V13.25C1.25 13.8467 1.48705 14.419 1.90901 14.841C2.33097 15.2629 2.90326 15.5 3.5 15.5H17C17.5967 15.5 18.169 15.2629 18.591 14.841C19.0129 14.419 19.25 13.8467 19.25 13.25V3.5" stroke="#444748" stroke-width="2.5" stroke-linecap="round" stroke-linejoin="round"/>
</svg>
