<svg width="20" height="21" viewBox="0 0 20 21" fill="none" xmlns="http://www.w3.org/2000/svg">
<path d="M6.705 15.332C8.60301 15.5571 10.521 15.5571 12.419 15.332C14.2822 15.1114 16.1129 14.6717 17.873 14.022C16.3824 12.3708 15.5587 10.2245 15.562 8V7.25C15.562 5.6587 14.9299 4.13258 13.8046 3.00736C12.6794 1.88214 11.1533 1.25 9.562 1.25C7.9707 1.25 6.44458 1.88214 5.31936 3.00736C4.19414 4.13258 3.562 5.6587 3.562 7.25V8C3.56502 10.2246 2.74099 12.371 1.25 14.022C2.983 14.662 4.81 15.107 6.705 15.332ZM12.419 15.332C12.5631 15.7819 12.5989 16.2594 12.5236 16.7257C12.4482 17.192 12.2638 17.634 11.9854 18.0156C11.7069 18.3972 11.3423 18.7076 10.9212 18.9216C10.5001 19.1356 10.0344 19.2472 9.562 19.2472C9.08962 19.2472 8.62392 19.1356 8.20281 18.9216C7.78169 18.7076 7.41707 18.3972 7.13862 18.0156C6.86017 17.634 6.67576 17.192 6.60041 16.7257C6.52506 16.2594 6.5609 15.7819 6.705 15.332" stroke="#444748" stroke-width="2.5" stroke-linecap="round" stroke-linejoin="round"/>
</svg>
