<svg width="18" height="22" viewBox="0 0 18 22" fill="none" xmlns="http://www.w3.org/2000/svg">
<path d="M12.499 5C12.499 5.99456 12.1039 6.94839 11.4007 7.65165C10.6974 8.35491 9.74356 8.75 8.749 8.75C7.75444 8.75 6.80061 8.35491 6.09735 7.65165C5.39409 6.94839 4.999 5.99456 4.999 5C4.999 4.00544 5.39409 3.05161 6.09735 2.34835C6.80061 1.64509 7.75444 1.25 8.749 1.25C9.74356 1.25 10.6974 1.64509 11.4007 2.34835C12.1039 3.05161 12.499 4.00544 12.499 5ZM1.25 19.118C1.28213 17.1504 2.08634 15.2742 3.48918 13.894C4.89202 12.5139 6.78109 11.7405 8.749 11.7405C10.7169 11.7405 12.606 12.5139 14.0088 13.894C15.4117 15.2742 16.2159 17.1504 16.248 19.118C13.8954 20.1968 11.3371 20.7535 8.749 20.75C6.073 20.75 3.533 20.166 1.25 19.118Z" stroke="#444748" stroke-width="2.5" stroke-linecap="round" stroke-linejoin="round"/>
</svg>
